<svg xmlns="http://www.w3.org/2000/svg" width="1240" height="1240"><path d="M0 620.001v620.001l620.25-.251 620.25-.251.251-619.75.251-619.75H0v620.001m.497.499c0 341 .114 480.649.253 310.332s.139-449.317 0-620S.497 279.5.497 620.5M611.5 390.584c-7.094 2.53-8.937 4.986-15.315 20.416-20.418 49.39-61.79 126.762-83.881 156.869-15.66 21.342-24.378 28.342-31.765 25.508-2.244-.862-5.398-7.377-6.604-13.644-1.473-7.652-1.163-38.356.55-54.593 3.939-37.322 12.866-85.14 21.617-115.789 1.594-5.582 2.898-11.005 2.898-12.05 0-4.763-5.222-5.668-9.917-1.718-2.314 1.948-3.673 4.592-5.524 10.75-8.618 28.666-18.728 81.54-22.692 118.667-1.884 17.647-1.661 54.835.381 63.58 2.411 10.326 5.293 17.413 8.822 21.691 4.522 5.483 8.246 7.103 16.22 7.056 27.595-.161 66.845-45.63 114.229-132.327C619.067 451.063 640 405.728 640 399.494c0-4.074-1.792-6.497-6.331-8.557-5.05-2.293-16.229-2.471-22.169-.353m-462.906 5.564c-18.549 1.634-37.576 7.455-51.595 15.783-24.162 14.355-42.139 44.883-40.77 69.235.464 8.258 2.635 13.199 5.553 12.637 1.322-.254 1.893-2.435 2.832-10.811 1.828-16.317 6.237-25.89 16.764-36.394 15.626-15.593 46.93-23.534 81.622-20.706 7.975.651 18.775 1.806 24 2.568 34.161 4.98 62.817 3.921 75.648-2.796 8.746-4.579 16.119-19.487 13.937-28.182-.961-3.83-4.395-2.918-7.073 1.878-1.185 2.124-3.023 4.363-4.083 4.977-3.075 1.781-17.72 1.027-34.994-1.802-24.258-3.973-35.614-5.427-50.935-6.519-15.586-1.112-16.858-1.106-30.906.132m-4.559 39.896c-7.874 1.632-8.996 3.564-20.573 35.456-7.989 22.009-13.957 38.873-19.993 56.5a9391.393 9391.393 0 01-13.476 39c-10.147 29.128-16.097 48.178-15.772 50.5.443 3.175 6.788 2.801 8.495-.5.711-1.375 6.637-13.525 13.168-27 6.532-13.475 18.957-38.9 27.611-56.5s17.658-36.05 20.008-41c2.35-4.95 8.424-17.55 13.497-28s9.286-20.312 9.362-21.916c.107-2.256-.54-3.315-2.862-4.682-3.684-2.17-13.458-3.103-19.465-1.858m66.729 8.901c-10.771 3.443-22.47 15.754-34.737 36.555-7.256 12.304-49.668 97.713-54.442 109.637-4.371 10.916-4.301 13.924.38 16.345 1.615.835 4.969 1.518 7.454 1.518 4.288 0 4.716-.267 8.418-5.25 4.547-6.121 13.165-14.428 21.663-20.879 8.174-6.206 14.445-10.259 15.006-9.698.256.256-1.315 4.5-3.492 9.432-4.932 11.176-7.581 20.998-6.658 24.679 2.587 10.305 14.866 9.092 47.907-4.731 8.38-3.506 20.565-8.891 27.076-11.968 6.511-3.076 12.222-5.356 12.69-5.067.468.289.373 1.898-.211 3.574-1.302 3.736-.544 10.152 1.585 13.4 9.666 14.753 51.776 10.789 98.597-9.282 14.276-6.119 34.953-16.025 39.739-19.038 6.273-3.949 7.744-10.621 2.762-12.533-.896-.344-8.207 2.75-17.278 7.312-27.788 13.976-53.931 24.492-69.797 28.074-13.934 3.146-27.677 2.868-31.553-.64-2.042-1.848-2.462-6.417-.863-9.404.975-1.822 1.181-1.803 5.896.565 7.181 3.607 16.95 3.455 25.366-.395 3.425-1.567 6.998-3.721 7.94-4.787 3.157-3.573 5.003-9.445 4.346-13.823-1.467-9.783-8.506-14.765-20.853-14.761-10.152.004-14.434 1.398-29.205 9.505-29.336 16.103-62.051 31.022-74.75 34.089-4.216 1.018-3.625-1.653 3.803-17.173 7.612-15.907 8.64-20.436 5.532-24.374-3.996-5.064-10.662-4.597-23.089 1.618-5.757 2.879-16.194 9.375-22.773 14.174-1.252.913-2.55 1.387-2.884 1.053-1.611-1.611 2.686-7.336 10.039-13.375 22.297-18.314 43.152-45.106 56.666-72.797 7.432-15.229 9.956-23.285 9.956-31.784 0-8.199-1.913-10.069-10.63-10.391-3.778-.14-8.101.139-9.606.62m4.71 13.913c-7.104 4.32-16.789 18.606-28.431 41.934-4.424 8.864-8.043 16.347-8.043 16.63 0 .283-1.71 4.016-3.8 8.296-4.913 10.063-5.289 11.109-4.226 11.766.883.545 14.086-14.999 21.646-25.484 15.292-21.209 29.949-50.831 26.739-54.041-.547-.547-2.096-.189-3.885.899m898.026 92.565c-9.563 2.203-15.757 4.87-41.639 17.932-45.707 23.066-79.971 34.106-95.726 30.842-8.063-1.67-10.584-5.257-8.164-11.619l.97-2.553 4.78 2.572c4.344 2.337 5.599 2.535 13.779 2.173 10.324-.459 15.262-2.457 20.33-8.229 3.716-4.232 4.59-7.127 3.926-13.009-1.032-9.161-8.433-14.532-20.023-14.532-10.592 0-15.388 1.572-30.761 10.081-15.394 8.52-58.952 30.334-62.722 31.411-3.093.884-2.939-1.175.618-8.271 5.454-10.878 10.264-24.181 9.943-27.498-.285-2.953-.633-3.249-4.162-3.539-5.26-.433-8.057 1.604-26.883 19.568-11.391 10.869-17.522 15.94-22.21 18.371-4.26 2.209-6.81 3.019-7.453 2.367-.638-.647 1.076-5.322 4.946-13.49 6.604-13.937 10.265-24.435 9.434-27.052-1.421-4.48-12.278-4.997-23.483-1.118-3.025 1.047-16.525 7.524-30 14.394-29.918 15.253-58.981 27.715-64.75 27.765-2.187.019-1.401-2.501 5.264-16.868 3.582-7.724 6.789-16.05 7.125-18.502.54-3.941.296-4.775-2.1-7.171-2.486-2.486-3.19-2.667-8.5-2.185-3.184.288-7.533 1.331-9.664 2.317-5.553 2.568-20.717 11.826-26.087 15.926-5.43 4.147-6.723 4.363-5.875.985.887-3.534-1.677-7.914-5.77-9.856-4.816-2.286-7.232-2.057-12.532 1.186-12.862 7.868-52.348 25.278-70.578 31.118-12.101 3.876-28.708 6.562-34.866 5.638-6.571-.985-9.667-3.765-9.667-8.681 0-4.793 1.873-5.869 5.758-3.309 1.944 1.281 5.295 1.931 11.52 2.234 8.265.401 9.153.241 15.214-2.742 8.273-4.073 10.821-7.574 11.311-15.536.312-5.059-.01-6.613-1.973-9.543-6.557-9.782-25.121-10.857-40.98-2.371-16.565 8.863-28.543 32.042-22.016 42.603 10.678 17.277 63.926 9.576 116.357-16.828 7.031-3.541 10.36-4.292 9.549-2.154-.261.688-1.53 4.535-2.82 8.55-2.63 8.183-2.38 9.238 3.072 12.95 4.919 3.35 9.62 3.002 12.873-.953 5.893-7.163 16.421-16.702 25.989-23.547 9.225-6.6 12.146-8.215 12.146-6.717 0 .294-1.182 2.865-2.626 5.715-7.767 15.328-9.915 27.663-5.571 31.99 3.434 3.422 13.858 2.912 25.615-1.254 20.216-7.162 67.23-28.806 82.813-38.124 2.052-1.227 4.034-1.929 4.404-1.558.37.37-.709 3.716-2.399 7.435-6.999 15.412-8.205 24.862-3.823 29.957 2.306 2.681 2.808 2.806 11.25 2.806 8.003 0 9.545-.33 16.337-3.498 4.125-1.925 10.336-5.637 13.803-8.25 3.467-2.614 6.544-4.752 6.838-4.752.525 0-.326 6.861-1.265 10.199-.263.934.445 2.622 1.573 3.75 5.427 5.427 23.262.431 56.551-15.842 7.7-3.764 14.329-6.552 14.73-6.195.402.356.26 2.352-.315 4.434-1.976 7.155 1.246 14.165 8.124 17.674 18.025 9.195 60.291.778 107.325-21.374 5.424-2.555 10.248-4.646 10.719-4.646.471 0-.255 1.638-1.613 3.64-1.359 2.001-2.47 4.447-2.47 5.434 0 5.732 7.427 14.515 15.273 18.063 4.581 2.071 6.711 2.359 17.227 2.33 13.832-.038 23.274-2.126 45-9.954 20.669-7.446 54.128-24.147 60.75-30.323 4.188-3.905 3.249-9.19-1.632-9.19-1.09 0-7.638 3.12-14.55 6.934-19.094 10.535-52.248 25.219-53.688 23.779-.335-.334.456-2.317 1.756-4.406 4.622-7.426 6.118-11.816 6.61-19.404.594-9.15-1.157-13.758-6.476-17.045-4.436-2.742-15.258-3.395-23.77-1.435m-821 14.428c-2.2 1.048-5.533 3.516-7.406 5.486-2.812 2.956-3.191 3.841-2.17 5.071 3.387 4.081 15.887 4.609 20.9.882 3.454-2.567 4.155-8.094 1.349-10.634-2.946-2.666-8.079-2.992-12.673-.805m815-.694c-11.293 3.763-34.363 15.692-32.533 16.822.639.396 2.243.512 3.564.26 3.195-.611 8.419 4.514 8.598 8.434.338 7.417.564 8.52 1.918 9.37 5.143 3.226 21.141-8.959 26.807-20.419 6.01-12.152 2.571-18.107-8.354-14.467m-515.866.853c-3.874 1.188-10.189 5.662-12.092 8.566-1.466 2.237-1.411 2.463.967 4.022 2.988 1.957 9.995 2.905 14.807 2.003 4.325-.812 8.684-4.767 8.684-7.879 0-4.83-6.68-8.455-12.366-6.712M986 567.079c-4.799 2.169-11 7.53-11 9.509 0 1.831 7.478 4.412 12.77 4.408 5.464-.004 10.695-2.728 12.392-6.453 1.379-3.026-.894-7.11-4.779-8.588-3.435-1.306-4.218-1.212-9.383 1.124M75.288 647.207c-.565.711-1.606 3.093-2.314 5.293-.707 2.2-4.79 13.423-9.072 24.94-4.282 11.516-7.586 21.262-7.343 21.656.244.394 1.263.502 2.265.24 1.281-.335 3.005-3.797 5.806-11.656l3.984-11.18 7.848-.295c4.635-.174 8.286.143 8.916.773.588.588 2.709 5.67 4.714 11.295 2.938 8.242 4.059 10.289 5.777 10.547 1.172.175 2.131-.08 2.131-.568 0-.488-1.523-5.132-3.384-10.32A15388.61 15388.61 0 0186.06 664c-2.845-7.975-5.532-15.175-5.973-16-1.065-1.994-3.522-2.399-4.799-.793m36.962-.43c-11.756.229-14.25.536-14.25 1.75 0 1.146 1.441 1.473 6.483 1.473h6.482l.268 24.75c.229 21.214.481 24.75 1.767 24.75s1.538-3.536 1.767-24.75l.268-24.75h6.423c6.363 0 8.673-.97 6.281-2.637-.681-.475-7.651-.738-15.489-.586m57.149 1.129c-5.065 2.301-10.402 7.528-12.957 12.691-2.678 5.412-2.72 19.399-.073 24.403 4.986 9.426 14.492 15 25.581 15 8.08 0 17.092-4.638 21.511-11.07 9.971-14.512 4.456-34.924-11.204-41.467-5.099-2.13-17.73-1.885-22.858.443m59.46.604c-16.227 8.452-19.802 30.643-6.999 43.446 2.978 2.977 6.51 5.323 9.603 6.377 8.706 2.966 19.323 1.805 25.019-2.737 2.572-2.051 2.7-2.578 2.703-11.124.002-7.41-.275-9.028-1.591-9.295-1.352-.274-1.594.88-1.594 7.595 0 6.293-.359 8.231-1.75 9.445-3.516 3.067-6.883 4.142-12.997 4.15-5.654.007-6.783-.366-11.9-3.929-6.57-4.578-10.408-10.96-11.135-18.516-.948-9.87 7.755-21.517 17.897-23.95 6.033-1.447 10.883-.639 17.101 2.85 3.547 1.99 5.001 2.361 5.863 1.499 1.647-1.647.441-3.024-5.117-5.84-6.88-3.487-18.378-3.473-25.103.029m52.891-1.73l-12.75.28V699h12.5c6.875 0 12.837.024 13.25.053.413.029.895-.646 1.073-1.5.278-1.333-1.318-1.553-11.284-1.553h-11.607l.284-10.75.284-10.75 11.25-.283c9.093-.228 11.25-.564 11.25-1.75 0-1.204-2.059-1.467-11.5-1.467H273v-21h11.5c9.346 0 11.5-.27 11.5-1.441 0-.793-.337-1.58-.75-1.75-.413-.17-6.488-.183-13.5-.029m35-.033l-12.75.313v51.832l13.502.304c12.308.277 13.501.149 13.5-1.446-.002-1.56-1.19-1.75-10.931-1.75h-10.929l-.322-9.25c-.476-13.668-1.371-12.641 11.292-12.968 14.411-.373 14.382-2.192-.04-2.564l-10.936-.282-.331-9.718c-.182-5.345-.186-10.055-.009-10.468.177-.413 5.17-.75 11.096-.75s11.044-.269 11.372-.598c.736-.736-.232-3.485-1.121-3.185-.354.12-6.381.358-13.393.53m37.247 2.503c-7.078 4.248-11.529 10.181-13.017 17.348-3.924 18.9 9.388 34.439 28.462 33.225 6.829-.435 16.058-4.382 16.058-6.869 0-2.362-3.045-2.203-6.817.358-16.386 11.119-39.668-7.787-33.278-27.025 4.898-14.746 20.189-21.089 33.372-13.841 3.797 2.087 5.581 2.596 6.362 1.815 1.586-1.586.327-2.991-5.177-5.78-3.972-2.013-6.372-2.481-12.723-2.481-7.054 0-8.363.321-13.242 3.25m39.691-2.604c-.379.378-.688 12.312-.688 26.521 0 25.762.006 25.833 2.149 25.833 2.104 0 2.137-.232 1.59-11.337-.307-6.235-.226-11.875.181-12.533.523-.847 4.221-1.114 12.66-.913l11.92.283.281 12.315c.276 12.078.324 12.31 2.5 12 2.217-.315 2.219-.334 2.487-25.747.147-13.988-.116-25.816-.583-26.283-.468-.468-1.601-.563-2.518-.211-1.427.548-1.667 2.354-1.667 12.533V671h-24.938l-.281-12.168c-.261-11.294-1.015-14.265-3.093-12.186m54.062.101l-12.75.313v51.832l13.502.304c12.308.277 13.501.149 13.5-1.446C462 696.189 460.809 696 451 696c-6.05 0-11.012-.337-11.026-.75-.014-.413-.254-4.51-.533-9.106-.763-12.544-1.246-12.03 11.62-12.362 14.427-.372 14.469-2.191.06-2.564l-10.888-.281-.706-9.419c-.388-5.181-.414-9.891-.058-10.468.388-.628 4.98-1.05 11.423-1.05 5.926 0 11.044-.269 11.372-.598.736-.736-.232-3.485-1.121-3.185-.354.12-6.381.358-13.393.53m37.25.009l-12.5.298.314 25.704c.173 14.137.412 25.801.53 25.92.119.118 6.053.291 13.186.383 10.369.133 12.97-.107 12.97-1.197 0-1.054-2.553-1.428-11.25-1.647l-11.25-.283v-22.042l11.25.179c8.965.142 11.25-.101 11.25-1.196 0-1.068-2.509-1.438-11.25-1.658l-11.25-.283v-20.868l11.25-.283c8.906-.224 11.25-.578 11.25-1.7 0-1.745.622-1.688-14.5-1.327m90.75-.009l-12.75.313V699h11.918c6.555 0 12.63.273 13.5.607 1.129.433 1.582.013 1.582-1.467 0-1.96-.623-2.09-11.25-2.357l-11.25-.283v-21l11.25-.283c8.974-.225 11.25-.573 11.25-1.717 0-1.144-2.276-1.492-11.25-1.717l-11.25-.283-.285-10.25-.285-10.25h11.535c10.868 0 11.535-.116 11.535-2 0-1.1-.337-1.902-.75-1.783-.413.12-6.487.358-13.5.53m38.75 1.2c-4.868 2.198-10.747 7.973-13.135 12.903-2.603 5.372-3.01 16.173-.825 21.894 4.002 10.479 14.332 17.267 26.248 17.246 6-.01 14.44-3.134 17.075-6.319 2.571-3.109-1.559-3.156-7.169-.081-9.397 5.15-20.474 3.198-27.223-4.796-9.102-10.783-8.472-24.112 1.566-33.137 8.174-7.349 16.318-8.351 26.203-3.222 4.644 2.409 8.237 2.501 7.471.192-.205-.62-2.812-2.357-5.792-3.86-4.515-2.278-6.67-2.725-12.919-2.68-4.988.036-8.84.659-11.5 1.86m37.167-1.28c-.367.366-.667 12.291-.667 26.5 0 25.032.061 25.833 1.969 25.833 1.837 0 1.988-.826 2.25-12.25l.281-12.25h25l.281 12.25c.262 11.424.413 12.25 2.25 12.25 1.909 0 1.969-.805 1.969-26.607 0-23.851-.164-26.544-1.582-26-.87.334-1.77.607-2 .607-.23 0-.418 5.413-.418 12.03v12.03l-12.75-.28-12.75-.28-.158-11.196c-.087-6.158-.451-11.671-.809-12.25-.744-1.204-1.894-1.359-2.866-.387m43.583-.005c-.955.386-1.25 6.624-1.25 26.421 0 25.661.021 25.917 2.1 25.917 2.078 0 2.096-.215 1.75-21.494-.212-13.036.024-21.595.6-21.75.522-.141 7.854 9.419 16.294 21.244 13.363 18.722 15.721 21.54 18.252 21.81l2.907.309.299-25.809c.28-24.24-.07-28.127-2.404-26.685-.439.271-.798 10.629-.798 23.017 0 16.786-.299 22.425-1.173 22.134-1-.334-13.164-17.202-26.455-36.685-5.729-8.397-7.188-9.613-10.122-8.429m51.417.005c-.367.366-.667 12.243-.667 26.393 0 22.536.196 25.801 1.582 26.333.87.334 1.77.607 2 .607.23 0 .418-12.15.418-27 0-21.833-.255-27-1.333-27-.734 0-1.634.3-2 .667m27.206 1.836c-5.768 3.005-12.148 10.132-13.697 15.304-2.934 9.793-.11 21.922 6.638 28.512 7.741 7.559 20.976 9.858 30.686 5.33 6.239-2.909 8.528-5.317 5.98-6.295-.96-.368-2.698-.066-3.862.672-10.912 6.914-22.644 5.656-30.147-3.232-8.986-10.646-8.604-22.701 1.028-32.392 3.973-3.997 6.187-5.367 10.255-6.343 6.414-1.539 12.059-.675 16.851 2.577 1.998 1.356 4.367 2.324 5.264 2.151 3.184-.613 1.557-3.221-3.733-5.985-7.298-3.812-18.269-3.942-25.263-.299m53.539-1.752c-.598.412-1.337 1.649-1.641 2.749-.305 1.1-4.428 12.534-9.163 25.408-4.734 12.875-8.608 23.562-8.608 23.75 0 .188 1.013.336 2.25.33 1.96-.011 2.766-1.462 6.25-11.25l4-11.238h16.998l4.107 11c3.432 9.19 4.483 11.056 6.392 11.338 1.58.234 2.128-.074 1.777-1-.521-1.37-5.594-15.681-10.933-30.838-7.172-20.36-8.318-22.39-11.429-20.249m29.088.015c-.635.466-.897 10.14-.717 26.484l.283 25.75h22.684c.413 0 .75-.562.75-1.25 0-.895-2.766-1.331-9.733-1.536l-9.732-.286-.268-24.631c-.257-23.73-.622-26.471-3.267-24.531m64.359 1.744c-16.307 8.493-19.853 30.592-6.975 43.469 5.973 5.973 12.669 8.41 21.558 7.844 6.829-.435 16.058-4.382 16.058-6.869 0-2.23-3.211-2.296-6.253-.13-10.433 7.429-24.69 3.628-31.781-8.472-5.628-9.604-4.172-19.751 4.012-27.95 8.184-8.201 17.385-9.388 27.738-3.58 3.866 2.169 4.948 2.411 6 1.345 1.047-1.062.915-1.586-.716-2.843-7.684-5.924-21.205-7.207-29.641-2.814m52.141-.429c-5.826 2.637-9.604 6.278-12.593 12.136-1.972 3.865-2.407 6.221-2.407 13.044 0 7.617.277 8.789 3.25 13.744 10.946 18.241 38.662 17.095 48.291-1.997 2.679-5.313 3.103-15.777.888-21.936-2.244-6.239-8.182-12.608-14.133-15.159-6.181-2.65-17.248-2.57-23.296.168m48.5-1.315c-.636.467-.886 10.086-.688 26.425l.312 25.69 11.44.31c10.347.279 11.44.142 11.438-1.441-.002-1.543-1.121-1.75-9.485-1.75h-9.482l-.268-24.667c-.257-23.765-.622-26.508-3.267-24.567m30.167-.099c-.367.366-.667 12.291-.667 26.5V699h12c9.868 0 12-.26 12-1.464 0-1.165-1.988-1.522-9.75-1.75l-9.75-.286v-24c0-14.844-.382-24.28-1-24.735-1.254-.921-1.985-.947-2.833-.098m43.083.08l-12.75.313V699h11.918c6.555 0 12.63.273 13.5.607 1.134.435 1.582.01 1.582-1.5 0-2.021-.471-2.107-11.534-2.107h-11.534l.284-10.75.284-10.75 11.25-.283c8.974-.225 11.25-.573 11.25-1.717 0-1.144-2.276-1.492-11.25-1.717l-11.25-.283-.285-10.25-.285-10.25h11.535c10.868 0 11.535-.116 11.535-2 0-1.1-.338-1.902-.75-1.783-.412.12-6.487.358-13.5.53m38.65 1.219c-4.897 2.179-10.565 7.778-13.014 12.855-2.296 4.759-2.968 15.027-1.36 20.771 1.797 6.418 8.572 13.607 15.456 16.401 7.161 2.906 15.884 2.518 23.037-1.026l4.981-2.467.287-9.83c.257-8.801.109-9.796-1.411-9.5-1.446.281-1.666 1.469-1.476 7.968.216 7.349.118 7.713-2.597 9.646-3.913 2.786-10.939 4.507-15.166 3.714-14.988-2.812-24.319-19.695-18.259-33.037 3.446-7.584 13.593-14.461 21.339-14.461 3.324 0 8.659 1.872 12.032 4.221 3.036 2.114 7.014 1.629 6.103-.745-.3-.782-2.949-2.559-5.887-3.949-6.689-3.165-17.642-3.42-24.065-.561m50.35-1.219l-12.75.313V699h12.5c6.875 0 12.838.024 13.25.053.412.029.895-.646 1.073-1.5.278-1.333-1.318-1.553-11.284-1.553h-11.607l.284-10.75.284-10.75h11.251c10.05 0 11.251-.187 11.25-1.75-.001-1.565-1.216-1.75-11.501-1.75H1175v-21h11.5c10.833 0 11.5-.116 11.5-2 0-1.1-.338-1.902-.75-1.783-.412.12-6.487.358-13.5.53m-657.505 1.503c.247.752 2.969 1.449 6.833 1.75l6.422.5.267 24.75c.228 21.083.488 24.75 1.75 24.75 1.271 0 1.483-3.57 1.483-24.954v-24.955l6.67-.295c4.223-.188 6.822-.755 7.084-1.546.318-.964-3.167-1.25-15.254-1.25-12.086 0-15.573.286-15.255 1.25m-352.63 2.163c-5.109 1.899-11.363 8.015-13.723 13.42-5.534 12.675 1.898 27.513 15.96 31.861 3.79 1.173 5.654 1.22 10.093.257 4.559-.99 6.365-2.101 11.094-6.83 6.944-6.944 8.924-12.94 6.965-21.103-3.261-13.596-18.08-22.181-30.389-17.605M977 650.314c-1.925.61-5.611 3.216-8.191 5.791-11.969 11.946-8.804 30.007 6.691 38.18 13.089 6.904 30.615-3.235 32.192-18.624.823-8.041-1.061-13.165-7.019-19.087-7.163-7.12-14.686-9.109-23.673-6.26M73.75 662.362C69.77 672.981 69.777 673 77.5 673c3.575 0 6.497-.337 6.493-.75-.017-1.865-5.778-16.677-6.587-16.936-.498-.16-2.143 3.012-3.656 7.048m751.892.01c-3.759 10.589-3.747 10.628 3.191 10.628 3.209 0 6.086-.253 6.395-.561.79-.79-4.752-16.78-5.954-17.181-.544-.181-2.178 3.02-3.632 7.114" fill="undefined" fill-rule="evenodd"/></svg>